<?xml version="1.0"?>
<!-- Generated by SVGo -->
<svg width="317.202mm" height="107.492mm"
     viewBox="0.000 0.000 317.202 107.492"
     xmlns="http://www.w3.org/2000/svg"
     xmlns:xlink="http://www.w3.org/1999/xlink">
<polygon points="311.202,5.001 311.280,5.004 311.358,5.013 311.435,5.028 311.511,5.049 311.584,5.077 311.655,5.109 311.724,5.148 311.789,5.191 311.851,5.240 311.909,5.293 311.962,5.351 312.011,5.413 312.054,5.478 312.093,5.547 312.125,5.618 312.153,5.691 312.174,5.767 312.189,5.844 312.198,5.922 312.202,6.001 312.202,101.492 312.198,101.570 312.189,101.648 312.174,101.725 312.153,101.801 312.125,101.874 312.093,101.945 312.054,102.014 312.011,102.079 311.962,102.141 311.909,102.199 311.851,102.252 311.789,102.301 311.724,102.344 311.655,102.383 311.584,102.415 311.511,102.443 311.435,102.464 311.358,102.479 311.280,102.488 311.202,102.492 6.001,102.492 5.922,102.488 5.844,102.479 5.767,102.464 5.691,102.443 5.618,102.415 5.547,102.383 5.478,102.344 5.413,102.301 5.351,102.252 5.293,102.199 5.240,102.141 5.191,102.079 5.148,102.014 5.109,101.945 5.077,101.874 5.049,101.801 5.028,101.725 5.013,101.648 5.004,101.570 5.000,101.491 5.001,6.001 5.004,5.922 5.013,5.844 5.028,5.767 5.049,5.691 5.077,5.618 5.109,5.547 5.148,5.478 5.191,5.413 5.240,5.351 5.293,5.293 5.351,5.240 5.413,5.191 5.478,5.148 5.547,5.109 5.618,5.077 5.691,5.049 5.767,5.028 5.844,5.013 5.922,5.004 6.001,5.000" style="fill:none;stroke-width:0.050000mm;stroke:black"/>
<polygon points="11.107,84.846 11.107,98.846 25.107,98.846 25.107,84.846" style="fill:none;stroke-width:0.050000mm;stroke:black"/>
<polygon points="34.919,84.846 34.919,98.846 48.919,98.846 48.919,84.846" style="fill:none;stroke-width:0.050000mm;stroke:black"/>
<polygon points="58.732,84.846 58.732,98.846 72.732,98.846 72.732,84.846" style="fill:none;stroke-width:0.050000mm;stroke:black"/>
<polygon points="85.519,83.876 85.519,85.076 83.794,85.076 83.794,91.346 82.969,91.346 82.969,94.146 83.794,94.146 83.794,97.376 90.544,97.376 90.544,94.146 130.169,94.146 130.169,98.846 144.169,98.846 144.169,94.146 183.794,94.146 183.794,97.376 190.544,97.376 190.544,94.146 191.369,94.146 191.369,91.346 190.544,91.346 190.544,85.075 188.819,85.075 188.819,83.876 185.519,83.876 185.519,85.075 183.794,85.075 183.794,89.545 144.169,89.545 144.169,84.846 130.169,84.846 130.169,89.546 90.544,89.546 90.544,85.076 88.819,85.076 88.819,83.876" style="fill:none;stroke-width:0.050000mm;stroke:black"/>
<polygon points="199.226,84.846 199.226,98.846 213.226,98.846 213.226,84.846" style="fill:none;stroke-width:0.050000mm;stroke:black"/>
<polygon points="218.276,84.846 218.276,98.846 232.276,98.846 232.276,84.846" style="fill:none;stroke-width:0.050000mm;stroke:black"/>
<polygon points="237.326,84.846 237.326,98.846 251.326,98.846 251.326,84.846" style="fill:none;stroke-width:0.050000mm;stroke:black"/>
<polygon points="256.376,84.846 256.376,98.846 270.376,98.846 270.376,84.846" style="fill:none;stroke-width:0.050000mm;stroke:black"/>
<polygon points="275.426,84.846 275.426,98.846 289.426,98.846 289.426,84.846" style="fill:none;stroke-width:0.050000mm;stroke:black"/>
<polygon points="294.476,84.846 294.476,98.846 308.476,98.846 308.476,84.846" style="fill:none;stroke-width:0.050000mm;stroke:black"/>
<polygon points="20.632,65.796 20.632,70.496 19.107,70.496 19.107,67.266 12.357,67.266 12.357,70.496 11.532,70.496 11.532,73.296 12.357,73.296 12.357,79.566 14.082,79.566 14.082,80.766 17.382,80.766 17.382,79.566 19.107,79.566 19.107,75.096 20.632,75.096 20.632,79.796 34.632,79.796 34.632,75.096 36.157,75.096 36.157,79.566 37.882,79.566 37.882,80.766 41.182,80.766 41.182,79.566 42.907,79.566 42.907,73.296 43.732,73.296 43.732,70.496 42.907,70.496 42.907,67.266 36.157,67.266 36.157,70.496 34.632,70.496 34.632,65.796" style="fill:none;stroke-width:0.050000mm;stroke:black"/>
<polygon points="51.588,65.796 51.588,79.796 65.588,79.796 65.588,65.796" style="fill:none;stroke-width:0.050000mm;stroke:black"/>
<polygon points="70.638,65.796 70.638,79.796 84.638,79.796 84.638,65.796" style="fill:none;stroke-width:0.050000mm;stroke:black"/>
<polygon points="89.688,65.796 89.688,79.796 103.688,79.796 103.688,65.796" style="fill:none;stroke-width:0.050000mm;stroke:black"/>
<polygon points="108.738,65.796 108.738,79.796 122.738,79.796 122.738,65.796" style="fill:none;stroke-width:0.050000mm;stroke:black"/>
<polygon points="127.788,65.796 127.788,79.796 141.788,79.796 141.788,65.796" style="fill:none;stroke-width:0.050000mm;stroke:black"/>
<polygon points="146.838,65.796 146.838,79.796 160.838,79.796 160.838,65.796" style="fill:none;stroke-width:0.050000mm;stroke:black"/>
<polygon points="165.888,65.796 165.888,79.796 179.888,79.796 179.888,65.796" style="fill:none;stroke-width:0.050000mm;stroke:black"/>
<polygon points="184.938,65.796 184.938,79.796 198.938,79.796 198.938,65.796" style="fill:none;stroke-width:0.050000mm;stroke:black"/>
<polygon points="203.988,65.796 203.988,79.796 217.988,79.796 217.988,65.796" style="fill:none;stroke-width:0.050000mm;stroke:black"/>
<polygon points="223.038,65.796 223.038,79.796 237.038,79.796 237.038,65.796" style="fill:none;stroke-width:0.050000mm;stroke:black"/>
<polygon points="249.232,65.796 249.232,79.796 263.232,79.796 263.232,65.796" style="fill:none;stroke-width:0.050000mm;stroke:black"/>
<polygon points="275.426,65.796 275.426,79.796 289.426,79.796 289.426,65.796" style="fill:none;stroke-width:0.050000mm;stroke:black"/>
<polygon points="294.476,65.796 294.476,79.796 308.476,79.796 308.476,65.796" style="fill:none;stroke-width:0.050000mm;stroke:black"/>
<polygon points="263.519,46.746 263.519,51.446 261.994,51.446 261.994,48.216 255.244,48.216 255.244,51.446 254.419,51.446 254.419,54.246 255.244,54.246 255.244,60.516 256.969,60.516 256.969,61.716 260.268,61.716 260.268,60.516 261.994,60.516 261.994,56.046 263.519,56.046 263.519,60.746 277.519,60.746 277.519,56.046 279.044,56.046 279.044,60.516 280.769,60.516 280.769,61.716 284.069,61.716 284.069,60.516 285.794,60.516 285.794,54.246 286.619,54.246 286.619,51.446 285.794,51.446 285.794,48.216 279.044,48.216 279.044,51.446 277.519,51.446 277.519,46.746" style="fill:none;stroke-width:0.050000mm;stroke:black"/>
<polygon points="15.869,46.746 15.869,60.746 29.869,60.746 29.869,46.746" style="fill:none;stroke-width:0.050000mm;stroke:black"/>
<polygon points="42.063,46.746 42.063,60.746 56.063,60.746 56.063,46.746" style="fill:none;stroke-width:0.050000mm;stroke:black"/>
<polygon points="61.113,46.746 61.113,60.746 75.113,60.746 75.113,46.746" style="fill:none;stroke-width:0.050000mm;stroke:black"/>
<polygon points="80.163,46.746 80.163,60.746 94.163,60.746 94.163,46.746" style="fill:none;stroke-width:0.050000mm;stroke:black"/>
<polygon points="99.213,46.746 99.213,60.746 113.213,60.746 113.213,46.746" style="fill:none;stroke-width:0.050000mm;stroke:black"/>
<polygon points="118.263,46.746 118.263,60.746 132.263,60.746 132.263,46.746" style="fill:none;stroke-width:0.050000mm;stroke:black"/>
<polygon points="137.313,46.746 137.313,60.746 151.313,60.746 151.313,46.746" style="fill:none;stroke-width:0.050000mm;stroke:black"/>
<polygon points="156.363,46.746 156.363,60.746 170.363,60.746 170.363,46.746" style="fill:none;stroke-width:0.050000mm;stroke:black"/>
<polygon points="175.413,46.746 175.413,60.746 189.413,60.746 189.413,46.746" style="fill:none;stroke-width:0.050000mm;stroke:black"/>
<polygon points="194.463,46.746 194.463,60.746 208.463,60.746 208.463,46.746" style="fill:none;stroke-width:0.050000mm;stroke:black"/>
<polygon points="213.513,46.746 213.513,60.746 227.513,60.746 227.513,46.746" style="fill:none;stroke-width:0.050000mm;stroke:black"/>
<polygon points="232.563,46.746 232.563,60.746 246.563,60.746 246.563,46.746" style="fill:none;stroke-width:0.050000mm;stroke:black"/>
<polygon points="294.476,46.746 294.476,60.746 308.476,60.746 308.476,46.746" style="fill:none;stroke-width:0.050000mm;stroke:black"/>
<polygon points="13.488,27.696 13.488,41.696 27.488,41.696 27.488,27.696" style="fill:none;stroke-width:0.050000mm;stroke:black"/>
<polygon points="37.301,27.696 37.301,41.696 51.301,41.696 51.301,27.696" style="fill:none;stroke-width:0.050000mm;stroke:black"/>
<polygon points="56.350,27.696 56.350,41.696 70.351,41.696 70.351,27.696" style="fill:none;stroke-width:0.050000mm;stroke:black"/>
<polygon points="75.400,27.696 75.400,41.696 89.400,41.696 89.400,27.696" style="fill:none;stroke-width:0.050000mm;stroke:black"/>
<polygon points="94.450,27.696 94.450,41.696 108.450,41.696 108.450,27.696" style="fill:none;stroke-width:0.050000mm;stroke:black"/>
<polygon points="113.500,27.696 113.500,41.696 127.500,41.696 127.500,27.696" style="fill:none;stroke-width:0.050000mm;stroke:black"/>
<polygon points="132.550,27.696 132.550,41.696 146.550,41.696 146.550,27.696" style="fill:none;stroke-width:0.050000mm;stroke:black"/>
<polygon points="151.601,27.696 151.601,41.696 165.601,41.696 165.601,27.696" style="fill:none;stroke-width:0.050000mm;stroke:black"/>
<polygon points="170.651,27.696 170.651,41.696 184.651,41.696 184.651,27.696" style="fill:none;stroke-width:0.050000mm;stroke:black"/>
<polygon points="189.701,27.696 189.701,41.696 203.701,41.696 203.701,27.696" style="fill:none;stroke-width:0.050000mm;stroke:black"/>
<polygon points="208.751,27.696 208.751,41.696 222.751,41.696 222.751,27.696" style="fill:none;stroke-width:0.050000mm;stroke:black"/>
<polygon points="227.801,27.696 227.801,41.696 241.801,41.696 241.801,27.696" style="fill:none;stroke-width:0.050000mm;stroke:black"/>
<polygon points="246.851,27.696 246.851,41.696 260.851,41.696 260.851,27.696" style="fill:none;stroke-width:0.050000mm;stroke:black"/>
<polygon points="270.663,27.696 270.663,41.696 284.663,41.696 284.663,27.696" style="fill:none;stroke-width:0.050000mm;stroke:black"/>
<polygon points="294.476,27.696 294.476,41.696 308.476,41.696 308.476,27.696" style="fill:none;stroke-width:0.050000mm;stroke:black"/>
<polygon points="265.901,8.646 265.901,13.345 264.376,13.345 264.376,10.115 257.626,10.115 257.626,13.345 256.801,13.345 256.801,16.146 257.626,16.146 257.626,22.416 259.351,22.416 259.351,23.616 262.651,23.616 262.651,22.416 264.376,22.416 264.376,17.946 265.901,17.946 265.901,22.646 279.901,22.646 279.901,17.946 281.426,17.946 281.426,22.416 283.151,22.416 283.151,23.616 286.451,23.616 286.451,22.416 288.176,22.416 288.176,16.146 289.001,16.146 289.001,13.345 288.176,13.345 288.176,10.115 281.426,10.115 281.426,13.345 279.901,13.345 279.901,8.646" style="fill:none;stroke-width:0.050000mm;stroke:black"/>
<polygon points="8.726,8.646 8.726,22.646 22.726,22.646 22.726,8.646" style="fill:none;stroke-width:0.050000mm;stroke:black"/>
<polygon points="27.776,8.646 27.776,22.646 41.776,22.646 41.776,8.646" style="fill:none;stroke-width:0.050000mm;stroke:black"/>
<polygon points="46.826,8.646 46.826,22.646 60.826,22.646 60.826,8.646" style="fill:none;stroke-width:0.050000mm;stroke:black"/>
<polygon points="65.876,8.646 65.876,22.646 79.876,22.646 79.876,8.646" style="fill:none;stroke-width:0.050000mm;stroke:black"/>
<polygon points="84.926,8.646 84.926,22.646 98.926,22.646 98.926,8.646" style="fill:none;stroke-width:0.050000mm;stroke:black"/>
<polygon points="103.976,8.646 103.976,22.646 117.976,22.646 117.976,8.646" style="fill:none;stroke-width:0.050000mm;stroke:black"/>
<polygon points="123.026,8.646 123.026,22.646 137.026,22.646 137.026,8.646" style="fill:none;stroke-width:0.050000mm;stroke:black"/>
<polygon points="142.076,8.646 142.076,22.646 156.076,22.646 156.076,8.646" style="fill:none;stroke-width:0.050000mm;stroke:black"/>
<polygon points="161.126,8.646 161.126,22.646 175.126,22.646 175.126,8.646" style="fill:none;stroke-width:0.050000mm;stroke:black"/>
<polygon points="180.176,8.646 180.176,22.646 194.176,22.646 194.176,8.646" style="fill:none;stroke-width:0.050000mm;stroke:black"/>
<polygon points="199.226,8.646 199.226,22.646 213.226,22.646 213.226,8.646" style="fill:none;stroke-width:0.050000mm;stroke:black"/>
<polygon points="218.276,8.646 218.276,22.646 232.276,22.646 232.276,8.646" style="fill:none;stroke-width:0.050000mm;stroke:black"/>
<polygon points="237.326,8.646 237.326,22.646 251.326,22.646 251.326,8.646" style="fill:none;stroke-width:0.050000mm;stroke:black"/>
<polygon points="294.476,8.646 294.476,22.646 308.476,22.646 308.476,8.646" style="fill:none;stroke-width:0.050000mm;stroke:black"/>
</svg>
