  0
SECTION
  2
HEADER
  9
$ACADVER
  1
AC1009
  9
$FILLMODE
 70
 0
  9
$SPLFRAME
 70
 1
  9
$EXTMIN
 10
0
 20
0
 30
0.0
  9
$EXTMAX
 10
1058.33
 20
1058.33
 30
0.0
  0
ENDSEC
  0
SECTION
  2
TABLES
  0
TABLE
  2
LAYER
 70
1
  0
LAYER
  2
0
 70
     0
 62
     7
  6
CONTINUOUS
  0
ENDTAB
  0
ENDSEC
  0
SECTION
  2
ENTITIES
  0
LINE
  8
0
 62
     0
 10
306.296
 20
97.6242
 30
0.0
 11
306.375
 21
97.6217
 31
0.0
  0
LINE
  8
0
 62
     0
 10
306.375
 20
97.6217
 30
0.0
 11
306.452
 21
97.6119
 31
0.0
  0
LINE
  8
0
 62
     0
 10
306.452
 20
97.6119
 30
0.0
 11
306.529
 21
97.5967
 31
0.0
  0
LINE
  8
0
 62
     0
 10
306.529
 20
97.5967
 30
0.0
 11
306.605
 21
97.5762
 31
0.0
  0
LINE
  8
0
 62
     0
 10
306.605
 20
97.5762
 30
0.0
 11
306.678
 21
97.5487
 31
0.0
  0
LINE
  8
0
 62
     0
 10
306.678
 20
97.5487
 30
0.0
 11
306.75
 21
97.5155
 31
0.0
  0
LINE
  8
0
 62
     0
 10
306.75
 20
97.5155
 30
0.0
 11
306.819
 21
97.4771
 31
0.0
  0
LINE
  8
0
 62
     0
 10
306.819
 20
97.4771
 30
0.0
 11
306.884
 21
97.4341
 31
0.0
  0
LINE
  8
0
 62
     0
 10
306.884
 20
97.4341
 30
0.0
 11
306.946
 21
97.3847
 31
0.0
  0
LINE
  8
0
 62
     0
 10
306.946
 20
97.3847
 30
0.0
 11
307.003
 21
97.3321
 31
0.0
  0
LINE
  8
0
 62
     0
 10
307.003
 20
97.3321
 30
0.0
 11
307.056
 21
97.2742
 31
0.0
  0
LINE
  8
0
 62
     0
 10
307.056
 20
97.2742
 30
0.0
 11
307.105
 21
97.2125
 31
0.0
  0
LINE
  8
0
 62
     0
 10
307.105
 20
97.2125
 30
0.0
 11
307.148
 21
97.1476
 31
0.0
  0
LINE
  8
0
 62
     0
 10
307.148
 20
97.1476
 30
0.0
 11
307.188
 21
97.0774
 31
0.0
  0
LINE
  8
0
 62
     0
 10
307.188
 20
97.0774
 30
0.0
 11
307.22
 21
97.0068
 31
0.0
  0
LINE
  8
0
 62
     0
 10
307.22
 20
97.0068
 30
0.0
 11
307.248
 21
96.9338
 31
0.0
  0
LINE
  8
0
 62
     0
 10
307.248
 20
96.9338
 30
0.0
 11
307.268
 21
96.8583
 31
0.0
  0
LINE
  8
0
 62
     0
 10
307.268
 20
96.8583
 30
0.0
 11
307.283
 21
96.7811
 31
0.0
  0
LINE
  8
0
 62
     0
 10
307.283
 20
96.7811
 30
0.0
 11
307.293
 21
96.7024
 31
0.0
  0
LINE
  8
0
 62
     0
 10
307.293
 20
96.7024
 30
0.0
 11
307.297
 21
96.6241
 31
0.0
  0
LINE
  8
0
 62
     0
 10
307.297
 20
96.6241
 30
0.0
 11
307.297
 21
1.13275
 31
0.0
  0
LINE
  8
0
 62
     0
 10
307.297
 20
1.13275
 30
0.0
 11
307.293
 21
1.05558
 31
0.0
  0
LINE
  8
0
 62
     0
 10
307.293
 20
1.05558
 30
0.0
 11
307.283
 21
0.977029
 31
0.0
  0
LINE
  8
0
 62
     0
 10
307.283
 20
0.977029
 30
0.0
 11
307.268
 21
0.899859
 31
0.0
  0
LINE
  8
0
 62
     0
 10
307.268
 20
0.899859
 30
0.0
 11
307.248
 21
0.824068
 31
0.0
  0
LINE
  8
0
 62
     0
 10
307.248
 20
0.824068
 30
0.0
 11
307.22
 21
0.751032
 31
0.0
  0
LINE
  8
0
 62
     0
 10
307.22
 20
0.751032
 30
0.0
 11
307.188
 21
0.679372
 31
0.0
  0
LINE
  8
0
 62
     0
 10
307.188
 20
0.679372
 30
0.0
 11
307.148
 21
0.610471
 31
0.0
  0
LINE
  8
0
 62
     0
 10
307.148
 20
0.610471
 30
0.0
 11
307.105
 21
0.545705
 31
0.0
  0
LINE
  8
0
 62
     0
 10
307.105
 20
0.545705
 30
0.0
 11
307.056
 21
0.48369
 31
0.0
  0
LINE
  8
0
 62
     0
 10
307.056
 20
0.48369
 30
0.0
 11
307.003
 21
0.425813
 31
0.0
  0
LINE
  8
0
 62
     0
 10
307.003
 20
0.425813
 30
0.0
 11
306.946
 21
0.373447
 31
0.0
  0
LINE
  8
0
 62
     0
 10
306.946
 20
0.373447
 30
0.0
 11
306.884
 21
0.323839
 31
0.0
  0
LINE
  8
0
 62
     0
 10
306.884
 20
0.323839
 30
0.0
 11
306.819
 21
0.28112
 31
0.0
  0
LINE
  8
0
 62
     0
 10
306.819
 20
0.28112
 30
0.0
 11
306.75
 21
0.242535
 31
0.0
  0
LINE
  8
0
 62
     0
 10
306.75
 20
0.242535
 30
0.0
 11
306.678
 21
0.209462
 31
0.0
  0
LINE
  8
0
 62
     0
 10
306.678
 20
0.209462
 30
0.0
 11
306.605
 21
0.181901
 31
0.0
  0
LINE
  8
0
 62
     0
 10
306.605
 20
0.181901
 30
0.0
 11
306.529
 21
0.16123
 31
0.0
  0
LINE
  8
0
 62
     0
 10
306.529
 20
0.16123
 30
0.0
 11
306.452
 21
0.146072
 31
0.0
  0
LINE
  8
0
 62
     0
 10
306.452
 20
0.146072
 30
0.0
 11
306.375
 21
0.136426
 31
0.0
  0
LINE
  8
0
 62
     0
 10
306.375
 20
0.136426
 30
0.0
 11
306.296
 21
0.132292
 31
0.0
  0
LINE
  8
0
 62
     0
 10
306.296
 20
0.132292
 30
0.0
 11
1.09554
 21
0.132292
 31
0.0
  0
LINE
  8
0
 62
     0
 10
1.09554
 20
0.132292
 30
0.0
 11
1.01699
 21
0.136426
 31
0.0
  0
LINE
  8
0
 62
     0
 10
1.01699
 20
0.136426
 30
0.0
 11
0.938445
 21
0.146072
 31
0.0
  0
LINE
  8
0
 62
     0
 10
0.938445
 20
0.146072
 30
0.0
 11
0.861275
 21
0.16123
 31
0.0
  0
LINE
  8
0
 62
     0
 10
0.861275
 20
0.16123
 30
0.0
 11
0.785481
 21
0.181901
 31
0.0
  0
LINE
  8
0
 62
     0
 10
0.785481
 20
0.181901
 30
0.0
 11
0.712445
 21
0.209462
 31
0.0
  0
LINE
  8
0
 62
     0
 10
0.712445
 20
0.209462
 30
0.0
 11
0.642165
 21
0.242535
 31
0.0
  0
LINE
  8
0
 62
     0
 10
0.642165
 20
0.242535
 30
0.0
 11
0.571885
 21
0.28112
 31
0.0
  0
LINE
  8
0
 62
     0
 10
0.571885
 20
0.28112
 30
0.0
 11
0.507118
 21
0.323839
 31
0.0
  0
LINE
  8
0
 62
     0
 10
0.507118
 20
0.323839
 30
0.0
 11
0.445107
 21
0.373447
 31
0.0
  0
LINE
  8
0
 62
     0
 10
0.445107
 20
0.373447
 30
0.0
 11
0.38723
 21
0.425813
 31
0.0
  0
LINE
  8
0
 62
     0
 10
0.38723
 20
0.425813
 30
0.0
 11
0.334863
 21
0.48369
 31
0.0
  0
LINE
  8
0
 62
     0
 10
0.334863
 20
0.48369
 30
0.0
 11
0.285254
 21
0.545705
 31
0.0
  0
LINE
  8
0
 62
     0
 10
0.285254
 20
0.545705
 30
0.0
 11
0.242535
 21
0.610471
 31
0.0
  0
LINE
  8
0
 62
     0
 10
0.242535
 20
0.610471
 30
0.0
 11
0.20395
 21
0.679372
 31
0.0
  0
LINE
  8
0
 62
     0
 10
0.20395
 20
0.679372
 30
0.0
 11
0.170877
 21
0.751032
 31
0.0
  0
LINE
  8
0
 62
     0
 10
0.170877
 20
0.751032
 30
0.0
 11
0.143316
 21
0.824068
 31
0.0
  0
LINE
  8
0
 62
     0
 10
0.143316
 20
0.824068
 30
0.0
 11
0.122645
 21
0.899859
 31
0.0
  0
LINE
  8
0
 62
     0
 10
0.122645
 20
0.899859
 30
0.0
 11
0.107487
 21
0.977029
 31
0.0
  0
LINE
  8
0
 62
     0
 10
0.107487
 20
0.977029
 30
0.0
 11
0.0978408
 21
1.05558
 31
0.0
  0
LINE
  8
0
 62
     0
 10
0.0978408
 20
1.05558
 30
0.0
 11
0.0950846
 21
1.13412
 31
0.0
  0
LINE
  8
0
 62
     0
 10
0.0950846
 20
1.13412
 30
0.0
 11
0.0950846
 21
96.6241
 31
0.0
  0
LINE
  8
0
 62
     0
 10
0.0950846
 20
96.6241
 30
0.0
 11
0.0978408
 21
96.7024
 31
0.0
  0
LINE
  8
0
 62
     0
 10
0.0978408
 20
96.7024
 30
0.0
 11
0.107487
 21
96.7811
 31
0.0
  0
LINE
  8
0
 62
     0
 10
0.107487
 20
96.7811
 30
0.0
 11
0.122645
 21
96.8583
 31
0.0
  0
LINE
  8
0
 62
     0
 10
0.122645
 20
96.8583
 30
0.0
 11
0.143316
 21
96.9338
 31
0.0
  0
LINE
  8
0
 62
     0
 10
0.143316
 20
96.9338
 30
0.0
 11
0.170877
 21
97.0068
 31
0.0
  0
LINE
  8
0
 62
     0
 10
0.170877
 20
97.0068
 30
0.0
 11
0.20395
 21
97.0774
 31
0.0
  0
LINE
  8
0
 62
     0
 10
0.20395
 20
97.0774
 30
0.0
 11
0.242535
 21
97.1476
 31
0.0
  0
LINE
  8
0
 62
     0
 10
0.242535
 20
97.1476
 30
0.0
 11
0.285254
 21
97.2125
 31
0.0
  0
LINE
  8
0
 62
     0
 10
0.285254
 20
97.2125
 30
0.0
 11
0.334863
 21
97.2742
 31
0.0
  0
LINE
  8
0
 62
     0
 10
0.334863
 20
97.2742
 30
0.0
 11
0.38723
 21
97.3321
 31
0.0
  0
LINE
  8
0
 62
     0
 10
0.38723
 20
97.3321
 30
0.0
 11
0.445107
 21
97.3847
 31
0.0
  0
LINE
  8
0
 62
     0
 10
0.445107
 20
97.3847
 30
0.0
 11
0.507118
 21
97.4341
 31
0.0
  0
LINE
  8
0
 62
     0
 10
0.507118
 20
97.4341
 30
0.0
 11
0.571885
 21
97.4771
 31
0.0
  0
LINE
  8
0
 62
     0
 10
0.571885
 20
97.4771
 30
0.0
 11
0.642165
 21
97.5155
 31
0.0
  0
LINE
  8
0
 62
     0
 10
0.642165
 20
97.5155
 30
0.0
 11
0.712445
 21
97.5487
 31
0.0
  0
LINE
  8
0
 62
     0
 10
0.712445
 20
97.5487
 30
0.0
 11
0.785481
 21
97.5762
 31
0.0
  0
LINE
  8
0
 62
     0
 10
0.785481
 20
97.5762
 30
0.0
 11
0.861275
 21
97.5967
 31
0.0
  0
LINE
  8
0
 62
     0
 10
0.861275
 20
97.5967
 30
0.0
 11
0.938445
 21
97.6119
 31
0.0
  0
LINE
  8
0
 62
     0
 10
0.938445
 20
97.6119
 30
0.0
 11
1.01699
 21
97.6217
 31
0.0
  0
LINE
  8
0
 62
     0
 10
1.01699
 20
97.6217
 30
0.0
 11
1.09554
 21
97.6242
 31
0.0
  0
LINE
  8
0
 62
     0
 10
1.09554
 20
97.6242
 30
0.0
 11
306.296
 21
97.6242
 31
0.0
  0
LINE
  8
0
 62
     0
 10
6.20116
 20
17.7794
 30
0.0
 11
20.202
 21
17.7794
 31
0.0
  0
LINE
  8
0
 62
     0
 10
20.202
 20
17.7794
 30
0.0
 11
20.202
 21
3.77857
 31
0.0
  0
LINE
  8
0
 62
     0
 10
20.202
 20
3.77857
 30
0.0
 11
6.20116
 21
3.77857
 31
0.0
  0
LINE
  8
0
 62
     0
 10
6.20116
 20
3.77857
 30
0.0
 11
6.20116
 21
17.7794
 31
0.0
  0
LINE
  8
0
 62
     0
 10
30.0137
 20
17.7794
 30
0.0
 11
44.0133
 21
17.7794
 31
0.0
  0
LINE
  8
0
 62
     0
 10
44.0133
 20
17.7794
 30
0.0
 11
44.0133
 21
3.77857
 31
0.0
  0
LINE
  8
0
 62
     0
 10
44.0133
 20
3.77857
 30
0.0
 11
30.0137
 21
3.77857
 31
0.0
  0
LINE
  8
0
 62
     0
 10
30.0137
 20
3.77857
 30
0.0
 11
30.0137
 21
17.7794
 31
0.0
  0
LINE
  8
0
 62
     0
 10
53.8261
 20
17.7794
 30
0.0
 11
67.8272
 21
17.7794
 31
0.0
  0
LINE
  8
0
 62
     0
 10
67.8272
 20
17.7794
 30
0.0
 11
67.8272
 21
3.77857
 31
0.0
  0
LINE
  8
0
 62
     0
 10
67.8272
 20
3.77857
 30
0.0
 11
53.8261
 21
3.77857
 31
0.0
  0
LINE
  8
0
 62
     0
 10
53.8261
 20
3.77857
 30
0.0
 11
53.8261
 21
17.7794
 31
0.0
  0
LINE
  8
0
 62
     0
 10
80.614
 20
18.7496
 30
0.0
 11
80.614
 21
17.5493
 31
0.0
  0
LINE
  8
0
 62
     0
 10
80.614
 20
17.5493
 30
0.0
 11
78.8885
 21
17.5493
 31
0.0
  0
LINE
  8
0
 62
     0
 10
78.8885
 20
17.5493
 30
0.0
 11
78.8885
 21
11.2793
 31
0.0
  0
LINE
  8
0
 62
     0
 10
78.8885
 20
11.2793
 30
0.0
 11
78.063
 21
11.2793
 31
0.0
  0
LINE
  8
0
 62
     0
 10
78.063
 20
11.2793
 30
0.0
 11
78.063
 21
8.47908
 31
0.0
  0
LINE
  8
0
 62
     0
 10
78.063
 20
8.47908
 30
0.0
 11
78.8885
 21
8.47908
 31
0.0
  0
LINE
  8
0
 62
     0
 10
78.8885
 20
8.47908
 30
0.0
 11
78.8885
 21
5.24895
 31
0.0
  0
LINE
  8
0
 62
     0
 10
78.8885
 20
5.24895
 30
0.0
 11
85.6382
 21
5.24895
 31
0.0
  0
LINE
  8
0
 62
     0
 10
85.6382
 20
5.24895
 30
0.0
 11
85.6382
 21
8.47908
 31
0.0
  0
LINE
  8
0
 62
     0
 10
85.6382
 20
8.47908
 30
0.0
 11
125.264
 21
8.47908
 31
0.0
  0
LINE
  8
0
 62
     0
 10
125.264
 20
8.47908
 30
0.0
 11
125.264
 21
3.77857
 31
0.0
  0
LINE
  8
0
 62
     0
 10
125.264
 20
3.77857
 30
0.0
 11
139.263
 21
3.77857
 31
0.0
  0
LINE
  8
0
 62
     0
 10
139.263
 20
3.77857
 30
0.0
 11
139.263
 21
8.47908
 31
0.0
  0
LINE
  8
0
 62
     0
 10
139.263
 20
8.47908
 30
0.0
 11
178.889
 21
8.47908
 31
0.0
  0
LINE
  8
0
 62
     0
 10
178.889
 20
8.47908
 30
0.0
 11
178.889
 21
5.24895
 31
0.0
  0
LINE
  8
0
 62
     0
 10
178.889
 20
5.24895
 30
0.0
 11
185.638
 21
5.24895
 31
0.0
  0
LINE
  8
0
 62
     0
 10
185.638
 20
5.24895
 30
0.0
 11
185.638
 21
8.47908
 31
0.0
  0
LINE
  8
0
 62
     0
 10
185.638
 20
8.47908
 30
0.0
 11
186.464
 21
8.47908
 31
0.0
  0
LINE
  8
0
 62
     0
 10
186.464
 20
8.47908
 30
0.0
 11
186.464
 21
11.2793
 31
0.0
  0
LINE
  8
0
 62
     0
 10
186.464
 20
11.2793
 30
0.0
 11
185.638
 21
11.2793
 31
0.0
  0
LINE
  8
0
 62
     0
 10
185.638
 20
11.2793
 30
0.0
 11
185.638
 21
17.5493
 31
0.0
  0
LINE
  8
0
 62
     0
 10
185.638
 20
17.5493
 30
0.0
 11
183.913
 21
17.5493
 31
0.0
  0
LINE
  8
0
 62
     0
 10
183.913
 20
17.5493
 30
0.0
 11
183.913
 21
18.7496
 31
0.0
  0
LINE
  8
0
 62
     0
 10
183.913
 20
18.7496
 30
0.0
 11
180.614
 21
18.7496
 31
0.0
  0
LINE
  8
0
 62
     0
 10
180.614
 20
18.7496
 30
0.0
 11
180.614
 21
17.5493
 31
0.0
  0
LINE
  8
0
 62
     0
 10
180.614
 20
17.5493
 30
0.0
 11
178.889
 21
17.5493
 31
0.0
  0
LINE
  8
0
 62
     0
 10
178.889
 20
17.5493
 30
0.0
 11
178.889
 21
13.0803
 31
0.0
  0
LINE
  8
0
 62
     0
 10
178.889
 20
13.0803
 30
0.0
 11
139.263
 21
13.0803
 31
0.0
  0
LINE
  8
0
 62
     0
 10
139.263
 20
13.0803
 30
0.0
 11
139.263
 21
17.7794
 31
0.0
  0
LINE
  8
0
 62
     0
 10
139.263
 20
17.7794
 30
0.0
 11
125.264
 21
17.7794
 31
0.0
  0
LINE
  8
0
 62
     0
 10
125.264
 20
17.7794
 30
0.0
 11
125.264
 21
13.079
 31
0.0
  0
LINE
  8
0
 62
     0
 10
125.264
 20
13.079
 30
0.0
 11
85.6382
 21
13.079
 31
0.0
  0
LINE
  8
0
 62
     0
 10
85.6382
 20
13.079
 30
0.0
 11
85.6382
 21
17.5493
 31
0.0
  0
LINE
  8
0
 62
     0
 10
85.6382
 20
17.5493
 30
0.0
 11
83.9128
 21
17.5493
 31
0.0
  0
LINE
  8
0
 62
     0
 10
83.9128
 20
17.5493
 30
0.0
 11
83.9128
 21
18.7496
 31
0.0
  0
LINE
  8
0
 62
     0
 10
83.9128
 20
18.7496
 30
0.0
 11
80.614
 21
18.7496
 31
0.0
  0
LINE
  8
0
 62
     0
 10
194.32
 20
17.7794
 30
0.0
 11
208.321
 21
17.7794
 31
0.0
  0
LINE
  8
0
 62
     0
 10
208.321
 20
17.7794
 30
0.0
 11
208.321
 21
3.77857
 31
0.0
  0
LINE
  8
0
 62
     0
 10
208.321
 20
3.77857
 30
0.0
 11
194.32
 21
3.77857
 31
0.0
  0
LINE
  8
0
 62
     0
 10
194.32
 20
3.77857
 30
0.0
 11
194.32
 21
17.7794
 31
0.0
  0
LINE
  8
0
 62
     0
 10
213.37
 20
17.7794
 30
0.0
 11
227.371
 21
17.7794
 31
0.0
  0
LINE
  8
0
 62
     0
 10
227.371
 20
17.7794
 30
0.0
 11
227.371
 21
3.77857
 31
0.0
  0
LINE
  8
0
 62
     0
 10
227.371
 20
3.77857
 30
0.0
 11
213.37
 21
3.77857
 31
0.0
  0
LINE
  8
0
 62
     0
 10
213.37
 20
3.77857
 30
0.0
 11
213.37
 21
17.7794
 31
0.0
  0
LINE
  8
0
 62
     0
 10
232.42
 20
17.7794
 30
0.0
 11
246.421
 21
17.7794
 31
0.0
  0
LINE
  8
0
 62
     0
 10
246.421
 20
17.7794
 30
0.0
 11
246.421
 21
3.77857
 31
0.0
  0
LINE
  8
0
 62
     0
 10
246.421
 20
3.77857
 30
0.0
 11
232.42
 21
3.77857
 31
0.0
  0
LINE
  8
0
 62
     0
 10
232.42
 20
3.77857
 30
0.0
 11
232.42
 21
17.7794
 31
0.0
  0
LINE
  8
0
 62
     0
 10
251.47
 20
17.7794
 30
0.0
 11
265.471
 21
17.7794
 31
0.0
  0
LINE
  8
0
 62
     0
 10
265.471
 20
17.7794
 30
0.0
 11
265.471
 21
3.77857
 31
0.0
  0
LINE
  8
0
 62
     0
 10
265.471
 20
3.77857
 30
0.0
 11
251.47
 21
3.77857
 31
0.0
  0
LINE
  8
0
 62
     0
 10
251.47
 20
3.77857
 30
0.0
 11
251.47
 21
17.7794
 31
0.0
  0
LINE
  8
0
 62
     0
 10
270.52
 20
17.7794
 30
0.0
 11
284.521
 21
17.7794
 31
0.0
  0
LINE
  8
0
 62
     0
 10
284.521
 20
17.7794
 30
0.0
 11
284.521
 21
3.77857
 31
0.0
  0
LINE
  8
0
 62
     0
 10
284.521
 20
3.77857
 30
0.0
 11
270.52
 21
3.77857
 31
0.0
  0
LINE
  8
0
 62
     0
 10
270.52
 20
3.77857
 30
0.0
 11
270.52
 21
17.7794
 31
0.0
  0
LINE
  8
0
 62
     0
 10
289.57
 20
17.7794
 30
0.0
 11
303.571
 21
17.7794
 31
0.0
  0
LINE
  8
0
 62
     0
 10
303.571
 20
17.7794
 30
0.0
 11
303.571
 21
3.77857
 31
0.0
  0
LINE
  8
0
 62
     0
 10
303.571
 20
3.77857
 30
0.0
 11
289.57
 21
3.77857
 31
0.0
  0
LINE
  8
0
 62
     0
 10
289.57
 20
3.77857
 30
0.0
 11
289.57
 21
17.7794
 31
0.0
  0
LINE
  8
0
 62
     0
 10
15.7262
 20
36.8293
 30
0.0
 11
15.7262
 21
32.129
 31
0.0
  0
LINE
  8
0
 62
     0
 10
15.7262
 20
32.129
 30
0.0
 11
14.2021
 21
32.129
 31
0.0
  0
LINE
  8
0
 62
     0
 10
14.2021
 20
32.129
 30
0.0
 11
14.2021
 21
35.3589
 31
0.0
  0
LINE
  8
0
 62
     0
 10
14.2021
 20
35.3589
 30
0.0
 11
7.45105
 21
35.3589
 31
0.0
  0
LINE
  8
0
 62
     0
 10
7.45105
 20
35.3589
 30
0.0
 11
7.45105
 21
32.129
 31
0.0
  0
LINE
  8
0
 62
     0
 10
7.45105
 20
32.129
 30
0.0
 11
6.627
 21
32.129
 31
0.0
  0
LINE
  8
0
 62
     0
 10
6.627
 20
32.129
 30
0.0
 11
6.627
 21
29.3288
 31
0.0
  0
LINE
  8
0
 62
     0
 10
6.627
 20
29.3288
 30
0.0
 11
7.45105
 21
29.3288
 31
0.0
  0
LINE
  8
0
 62
     0
 10
7.45105
 20
29.3288
 30
0.0
 11
7.45105
 21
23.0587
 31
0.0
  0
LINE
  8
0
 62
     0
 10
7.45105
 20
23.0587
 30
0.0
 11
9.17635
 21
23.0587
 31
0.0
  0
LINE
  8
0
 62
     0
 10
9.17635
 20
23.0587
 30
0.0
 11
9.17635
 21
21.8584
 31
0.0
  0
LINE
  8
0
 62
     0
 10
9.17635
 20
21.8584
 30
0.0
 11
12.4768
 21
21.8584
 31
0.0
  0
LINE
  8
0
 62
     0
 10
12.4768
 20
21.8584
 30
0.0
 11
12.4768
 21
23.0587
 31
0.0
  0
LINE
  8
0
 62
     0
 10
12.4768
 20
23.0587
 30
0.0
 11
14.2021
 21
23.0587
 31
0.0
  0
LINE
  8
0
 62
     0
 10
14.2021
 20
23.0587
 30
0.0
 11
14.2021
 21
27.5291
 31
0.0
  0
LINE
  8
0
 62
     0
 10
14.2021
 20
27.5291
 30
0.0
 11
15.7262
 21
27.5291
 31
0.0
  0
LINE
  8
0
 62
     0
 10
15.7262
 20
27.5291
 30
0.0
 11
15.7262
 21
22.8286
 31
0.0
  0
LINE
  8
0
 62
     0
 10
15.7262
 20
22.8286
 30
0.0
 11
29.727
 21
22.8286
 31
0.0
  0
LINE
  8
0
 62
     0
 10
29.727
 20
22.8286
 30
0.0
 11
29.727
 21
27.5291
 31
0.0
  0
LINE
  8
0
 62
     0
 10
29.727
 20
27.5291
 30
0.0
 11
31.2511
 21
27.5291
 31
0.0
  0
LINE
  8
0
 62
     0
 10
31.2511
 20
27.5291
 30
0.0
 11
31.2511
 21
23.0587
 31
0.0
  0
LINE
  8
0
 62
     0
 10
31.2511
 20
23.0587
 30
0.0
 11
32.9765
 21
23.0587
 31
0.0
  0
LINE
  8
0
 62
     0
 10
32.9765
 20
23.0587
 30
0.0
 11
32.9765
 21
21.8584
 31
0.0
  0
LINE
  8
0
 62
     0
 10
32.9765
 20
21.8584
 30
0.0
 11
36.2768
 21
21.8584
 31
0.0
  0
LINE
  8
0
 62
     0
 10
36.2768
 20
21.8584
 30
0.0
 11
36.2768
 21
23.0587
 31
0.0
  0
LINE
  8
0
 62
     0
 10
36.2768
 20
23.0587
 30
0.0
 11
38.0023
 21
23.0587
 31
0.0
  0
LINE
  8
0
 62
     0
 10
38.0023
 20
23.0587
 30
0.0
 11
38.0023
 21
29.3288
 31
0.0
  0
LINE
  8
0
 62
     0
 10
38.0023
 20
29.3288
 30
0.0
 11
38.8264
 21
29.3288
 31
0.0
  0
LINE
  8
0
 62
     0
 10
38.8264
 20
29.3288
 30
0.0
 11
38.8264
 21
32.129
 31
0.0
  0
LINE
  8
0
 62
     0
 10
38.8264
 20
32.129
 30
0.0
 11
38.0023
 21
32.129
 31
0.0
  0
LINE
  8
0
 62
     0
 10
38.0023
 20
32.129
 30
0.0
 11
38.0023
 21
35.3589
 31
0.0
  0
LINE
  8
0
 62
     0
 10
38.0023
 20
35.3589
 30
0.0
 11
31.2511
 21
35.3589
 31
0.0
  0
LINE
  8
0
 62
     0
 10
31.2511
 20
35.3589
 30
0.0
 11
31.2511
 21
32.129
 31
0.0
  0
LINE
  8
0
 62
     0
 10
31.2511
 20
32.129
 30
0.0
 11
29.727
 21
32.129
 31
0.0
  0
LINE
  8
0
 62
     0
 10
29.727
 20
32.129
 30
0.0
 11
29.727
 21
36.8293
 31
0.0
  0
LINE
  8
0
 62
     0
 10
29.727
 20
36.8293
 30
0.0
 11
15.7262
 21
36.8293
 31
0.0
  0
LINE
  8
0
 62
     0
 10
46.6824
 20
36.8293
 30
0.0
 11
60.682
 21
36.8293
 31
0.0
  0
LINE
  8
0
 62
     0
 10
60.682
 20
36.8293
 30
0.0
 11
60.682
 21
22.8286
 31
0.0
  0
LINE
  8
0
 62
     0
 10
60.682
 20
22.8286
 30
0.0
 11
46.6824
 21
22.8286
 31
0.0
  0
LINE
  8
0
 62
     0
 10
46.6824
 20
22.8286
 30
0.0
 11
46.6824
 21
36.8293
 31
0.0
  0
LINE
  8
0
 62
     0
 10
65.7324
 20
36.8293
 30
0.0
 11
79.732
 21
36.8293
 31
0.0
  0
LINE
  8
0
 62
     0
 10
79.732
 20
36.8293
 30
0.0
 11
79.732
 21
22.8286
 31
0.0
  0
LINE
  8
0
 62
     0
 10
79.732
 20
22.8286
 30
0.0
 11
65.7324
 21
22.8286
 31
0.0
  0
LINE
  8
0
 62
     0
 10
65.7324
 20
22.8286
 30
0.0
 11
65.7324
 21
36.8293
 31
0.0
  0
LINE
  8
0
 62
     0
 10
84.7824
 20
36.8293
 30
0.0
 11
98.782
 21
36.8293
 31
0.0
  0
LINE
  8
0
 62
     0
 10
98.782
 20
36.8293
 30
0.0
 11
98.782
 21
22.8286
 31
0.0
  0
LINE
  8
0
 62
     0
 10
98.782
 20
22.8286
 30
0.0
 11
84.7824
 21
22.8286
 31
0.0
  0
LINE
  8
0
 62
     0
 10
84.7824
 20
22.8286
 30
0.0
 11
84.7824
 21
36.8293
 31
0.0
  0
LINE
  8
0
 62
     0
 10
103.832
 20
36.8293
 30
0.0
 11
117.832
 21
36.8293
 31
0.0
  0
LINE
  8
0
 62
     0
 10
117.832
 20
36.8293
 30
0.0
 11
117.832
 21
22.8286
 31
0.0
  0
LINE
  8
0
 62
     0
 10
117.832
 20
22.8286
 30
0.0
 11
103.832
 21
22.8286
 31
0.0
  0
LINE
  8
0
 62
     0
 10
103.832
 20
22.8286
 30
0.0
 11
103.832
 21
36.8293
 31
0.0
  0
LINE
  8
0
 62
     0
 10
122.882
 20
36.8293
 30
0.0
 11
136.882
 21
36.8293
 31
0.0
  0
LINE
  8
0
 62
     0
 10
136.882
 20
36.8293
 30
0.0
 11
136.882
 21
22.8286
 31
0.0
  0
LINE
  8
0
 62
     0
 10
136.882
 20
22.8286
 30
0.0
 11
122.882
 21
22.8286
 31
0.0
  0
LINE
  8
0
 62
     0
 10
122.882
 20
22.8286
 30
0.0
 11
122.882
 21
36.8293
 31
0.0
  0
LINE
  8
0
 62
     0
 10
141.932
 20
36.8293
 30
0.0
 11
155.932
 21
36.8293
 31
0.0
  0
LINE
  8
0
 62
     0
 10
155.932
 20
36.8293
 30
0.0
 11
155.932
 21
22.8286
 31
0.0
  0
LINE
  8
0
 62
     0
 10
155.932
 20
22.8286
 30
0.0
 11
141.932
 21
22.8286
 31
0.0
  0
LINE
  8
0
 62
     0
 10
141.932
 20
22.8286
 30
0.0
 11
141.932
 21
36.8293
 31
0.0
  0
LINE
  8
0
 62
     0
 10
160.982
 20
36.8293
 30
0.0
 11
174.982
 21
36.8293
 31
0.0
  0
LINE
  8
0
 62
     0
 10
174.982
 20
36.8293
 30
0.0
 11
174.982
 21
22.8286
 31
0.0
  0
LINE
  8
0
 62
     0
 10
174.982
 20
22.8286
 30
0.0
 11
160.982
 21
22.8286
 31
0.0
  0
LINE
  8
0
 62
     0
 10
160.982
 20
22.8286
 30
0.0
 11
160.982
 21
36.8293
 31
0.0
  0
LINE
  8
0
 62
     0
 10
180.032
 20
36.8293
 30
0.0
 11
194.032
 21
36.8293
 31
0.0
  0
LINE
  8
0
 62
     0
 10
194.032
 20
36.8293
 30
0.0
 11
194.032
 21
22.8286
 31
0.0
  0
LINE
  8
0
 62
     0
 10
194.032
 20
22.8286
 30
0.0
 11
180.032
 21
22.8286
 31
0.0
  0
LINE
  8
0
 62
     0
 10
180.032
 20
22.8286
 30
0.0
 11
180.032
 21
36.8293
 31
0.0
  0
LINE
  8
0
 62
     0
 10
199.082
 20
36.8293
 30
0.0
 11
213.082
 21
36.8293
 31
0.0
  0
LINE
  8
0
 62
     0
 10
213.082
 20
36.8293
 30
0.0
 11
213.082
 21
22.8286
 31
0.0
  0
LINE
  8
0
 62
     0
 10
213.082
 20
22.8286
 30
0.0
 11
199.082
 21
22.8286
 31
0.0
  0
LINE
  8
0
 62
     0
 10
199.082
 20
22.8286
 30
0.0
 11
199.082
 21
36.8293
 31
0.0
  0
LINE
  8
0
 62
     0
 10
218.132
 20
36.8293
 30
0.0
 11
232.132
 21
36.8293
 31
0.0
  0
LINE
  8
0
 62
     0
 10
232.132
 20
36.8293
 30
0.0
 11
232.132
 21
22.8286
 31
0.0
  0
LINE
  8
0
 62
     0
 10
232.132
 20
22.8286
 30
0.0
 11
218.132
 21
22.8286
 31
0.0
  0
LINE
  8
0
 62
     0
 10
218.132
 20
22.8286
 30
0.0
 11
218.132
 21
36.8293
 31
0.0
  0
LINE
  8
0
 62
     0
 10
244.326
 20
36.8293
 30
0.0
 11
258.327
 21
36.8293
 31
0.0
  0
LINE
  8
0
 62
     0
 10
258.327
 20
36.8293
 30
0.0
 11
258.327
 21
22.8286
 31
0.0
  0
LINE
  8
0
 62
     0
 10
258.327
 20
22.8286
 30
0.0
 11
244.326
 21
22.8286
 31
0.0
  0
LINE
  8
0
 62
     0
 10
244.326
 20
22.8286
 30
0.0
 11
244.326
 21
36.8293
 31
0.0
  0
LINE
  8
0
 62
     0
 10
270.52
 20
36.8293
 30
0.0
 11
284.521
 21
36.8293
 31
0.0
  0
LINE
  8
0
 62
     0
 10
284.521
 20
36.8293
 30
0.0
 11
284.521
 21
22.8286
 31
0.0
  0
LINE
  8
0
 62
     0
 10
284.521
 20
22.8286
 30
0.0
 11
270.52
 21
22.8286
 31
0.0
  0
LINE
  8
0
 62
     0
 10
270.52
 20
22.8286
 30
0.0
 11
270.52
 21
36.8293
 31
0.0
  0
LINE
  8
0
 62
     0
 10
289.57
 20
36.8293
 30
0.0
 11
303.571
 21
36.8293
 31
0.0
  0
LINE
  8
0
 62
     0
 10
303.571
 20
36.8293
 30
0.0
 11
303.571
 21
22.8286
 31
0.0
  0
LINE
  8
0
 62
     0
 10
303.571
 20
22.8286
 30
0.0
 11
289.57
 21
22.8286
 31
0.0
  0
LINE
  8
0
 62
     0
 10
289.57
 20
22.8286
 30
0.0
 11
289.57
 21
36.8293
 31
0.0
  0
LINE
  8
0
 62
     0
 10
258.614
 20
55.8793
 30
0.0
 11
258.614
 21
51.1789
 31
0.0
  0
LINE
  8
0
 62
     0
 10
258.614
 20
51.1789
 30
0.0
 11
257.088
 21
51.1789
 31
0.0
  0
LINE
  8
0
 62
     0
 10
257.088
 20
51.1789
 30
0.0
 11
257.088
 21
54.4089
 31
0.0
  0
LINE
  8
0
 62
     0
 10
257.088
 20
54.4089
 30
0.0
 11
250.339
 21
54.4089
 31
0.0
  0
LINE
  8
0
 62
     0
 10
250.339
 20
54.4089
 30
0.0
 11
250.339
 21
51.1789
 31
0.0
  0
LINE
  8
0
 62
     0
 10
250.339
 20
51.1789
 30
0.0
 11
249.513
 21
51.1789
 31
0.0
  0
LINE
  8
0
 62
     0
 10
249.513
 20
51.1789
 30
0.0
 11
249.513
 21
48.3789
 31
0.0
  0
LINE
  8
0
 62
     0
 10
249.513
 20
48.3789
 30
0.0
 11
250.339
 21
48.3789
 31
0.0
  0
LINE
  8
0
 62
     0
 10
250.339
 20
48.3789
 30
0.0
 11
250.339
 21
42.1086
 31
0.0
  0
LINE
  8
0
 62
     0
 10
250.339
 20
42.1086
 30
0.0
 11
252.064
 21
42.1086
 31
0.0
  0
LINE
  8
0
 62
     0
 10
252.064
 20
42.1086
 30
0.0
 11
252.064
 21
40.9085
 31
0.0
  0
LINE
  8
0
 62
     0
 10
252.064
 20
40.9085
 30
0.0
 11
255.363
 21
40.9085
 31
0.0
  0
LINE
  8
0
 62
     0
 10
255.363
 20
40.9085
 30
0.0
 11
255.363
 21
42.1086
 31
0.0
  0
LINE
  8
0
 62
     0
 10
255.363
 20
42.1086
 30
0.0
 11
257.088
 21
42.1086
 31
0.0
  0
LINE
  8
0
 62
     0
 10
257.088
 20
42.1086
 30
0.0
 11
257.088
 21
46.579
 31
0.0
  0
LINE
  8
0
 62
     0
 10
257.088
 20
46.579
 30
0.0
 11
258.614
 21
46.579
 31
0.0
  0
LINE
  8
0
 62
     0
 10
258.614
 20
46.579
 30
0.0
 11
258.614
 21
41.8786
 31
0.0
  0
LINE
  8
0
 62
     0
 10
258.614
 20
41.8786
 30
0.0
 11
272.613
 21
41.8786
 31
0.0
  0
LINE
  8
0
 62
     0
 10
272.613
 20
41.8786
 30
0.0
 11
272.613
 21
46.579
 31
0.0
  0
LINE
  8
0
 62
     0
 10
272.613
 20
46.579
 30
0.0
 11
274.139
 21
46.579
 31
0.0
  0
LINE
  8
0
 62
     0
 10
274.139
 20
46.579
 30
0.0
 11
274.139
 21
42.1086
 31
0.0
  0
LINE
  8
0
 62
     0
 10
274.139
 20
42.1086
 30
0.0
 11
275.864
 21
42.1086
 31
0.0
  0
LINE
  8
0
 62
     0
 10
275.864
 20
42.1086
 30
0.0
 11
275.864
 21
40.9085
 31
0.0
  0
LINE
  8
0
 62
     0
 10
275.864
 20
40.9085
 30
0.0
 11
279.163
 21
40.9085
 31
0.0
  0
LINE
  8
0
 62
     0
 10
279.163
 20
40.9085
 30
0.0
 11
279.163
 21
42.1086
 31
0.0
  0
LINE
  8
0
 62
     0
 10
279.163
 20
42.1086
 30
0.0
 11
280.888
 21
42.1086
 31
0.0
  0
LINE
  8
0
 62
     0
 10
280.888
 20
42.1086
 30
0.0
 11
280.888
 21
48.3789
 31
0.0
  0
LINE
  8
0
 62
     0
 10
280.888
 20
48.3789
 30
0.0
 11
281.714
 21
48.3789
 31
0.0
  0
LINE
  8
0
 62
     0
 10
281.714
 20
48.3789
 30
0.0
 11
281.714
 21
51.1789
 31
0.0
  0
LINE
  8
0
 62
     0
 10
281.714
 20
51.1789
 30
0.0
 11
280.888
 21
51.1789
 31
0.0
  0
LINE
  8
0
 62
     0
 10
280.888
 20
51.1789
 30
0.0
 11
280.888
 21
54.4089
 31
0.0
  0
LINE
  8
0
 62
     0
 10
280.888
 20
54.4089
 30
0.0
 11
274.139
 21
54.4089
 31
0.0
  0
LINE
  8
0
 62
     0
 10
274.139
 20
54.4089
 30
0.0
 11
274.139
 21
51.1789
 31
0.0
  0
LINE
  8
0
 62
     0
 10
274.139
 20
51.1789
 30
0.0
 11
272.613
 21
51.1789
 31
0.0
  0
LINE
  8
0
 62
     0
 10
272.613
 20
51.1789
 30
0.0
 11
272.613
 21
55.8793
 31
0.0
  0
LINE
  8
0
 62
     0
 10
272.613
 20
55.8793
 30
0.0
 11
258.614
 21
55.8793
 31
0.0
  0
LINE
  8
0
 62
     0
 10
10.9637
 20
55.8793
 30
0.0
 11
24.9632
 21
55.8793
 31
0.0
  0
LINE
  8
0
 62
     0
 10
24.9632
 20
55.8793
 30
0.0
 11
24.9632
 21
41.8786
 31
0.0
  0
LINE
  8
0
 62
     0
 10
24.9632
 20
41.8786
 30
0.0
 11
10.9637
 21
41.8786
 31
0.0
  0
LINE
  8
0
 62
     0
 10
10.9637
 20
41.8786
 30
0.0
 11
10.9637
 21
55.8793
 31
0.0
  0
LINE
  8
0
 62
     0
 10
37.1574
 20
55.8793
 30
0.0
 11
51.157
 21
55.8793
 31
0.0
  0
LINE
  8
0
 62
     0
 10
51.157
 20
55.8793
 30
0.0
 11
51.157
 21
41.8786
 31
0.0
  0
LINE
  8
0
 62
     0
 10
51.157
 20
41.8786
 30
0.0
 11
37.1574
 21
41.8786
 31
0.0
  0
LINE
  8
0
 62
     0
 10
37.1574
 20
41.8786
 30
0.0
 11
37.1574
 21
55.8793
 31
0.0
  0
LINE
  8
0
 62
     0
 10
56.2074
 20
55.8793
 30
0.0
 11
70.207
 21
55.8793
 31
0.0
  0
LINE
  8
0
 62
     0
 10
70.207
 20
55.8793
 30
0.0
 11
70.207
 21
41.8786
 31
0.0
  0
LINE
  8
0
 62
     0
 10
70.207
 20
41.8786
 30
0.0
 11
56.2074
 21
41.8786
 31
0.0
  0
LINE
  8
0
 62
     0
 10
56.2074
 20
41.8786
 30
0.0
 11
56.2074
 21
55.8793
 31
0.0
  0
LINE
  8
0
 62
     0
 10
75.2574
 20
55.8793
 30
0.0
 11
89.257
 21
55.8793
 31
0.0
  0
LINE
  8
0
 62
     0
 10
89.257
 20
55.8793
 30
0.0
 11
89.257
 21
41.8786
 31
0.0
  0
LINE
  8
0
 62
     0
 10
89.257
 20
41.8786
 30
0.0
 11
75.2574
 21
41.8786
 31
0.0
  0
LINE
  8
0
 62
     0
 10
75.2574
 20
41.8786
 30
0.0
 11
75.2574
 21
55.8793
 31
0.0
  0
LINE
  8
0
 62
     0
 10
94.3074
 20
55.8793
 30
0.0
 11
108.307
 21
55.8793
 31
0.0
  0
LINE
  8
0
 62
     0
 10
108.307
 20
55.8793
 30
0.0
 11
108.307
 21
41.8786
 31
0.0
  0
LINE
  8
0
 62
     0
 10
108.307
 20
41.8786
 30
0.0
 11
94.3074
 21
41.8786
 31
0.0
  0
LINE
  8
0
 62
     0
 10
94.3074
 20
41.8786
 30
0.0
 11
94.3074
 21
55.8793
 31
0.0
  0
LINE
  8
0
 62
     0
 10
113.357
 20
55.8793
 30
0.0
 11
127.357
 21
55.8793
 31
0.0
  0
LINE
  8
0
 62
     0
 10
127.357
 20
55.8793
 30
0.0
 11
127.357
 21
41.8786
 31
0.0
  0
LINE
  8
0
 62
     0
 10
127.357
 20
41.8786
 30
0.0
 11
113.357
 21
41.8786
 31
0.0
  0
LINE
  8
0
 62
     0
 10
113.357
 20
41.8786
 30
0.0
 11
113.357
 21
55.8793
 31
0.0
  0
LINE
  8
0
 62
     0
 10
132.407
 20
55.8793
 30
0.0
 11
146.407
 21
55.8793
 31
0.0
  0
LINE
  8
0
 62
     0
 10
146.407
 20
55.8793
 30
0.0
 11
146.407
 21
41.8786
 31
0.0
  0
LINE
  8
0
 62
     0
 10
146.407
 20
41.8786
 30
0.0
 11
132.407
 21
41.8786
 31
0.0
  0
LINE
  8
0
 62
     0
 10
132.407
 20
41.8786
 30
0.0
 11
132.407
 21
55.8793
 31
0.0
  0
LINE
  8
0
 62
     0
 10
151.457
 20
55.8793
 30
0.0
 11
165.457
 21
55.8793
 31
0.0
  0
LINE
  8
0
 62
     0
 10
165.457
 20
55.8793
 30
0.0
 11
165.457
 21
41.8786
 31
0.0
  0
LINE
  8
0
 62
     0
 10
165.457
 20
41.8786
 30
0.0
 11
151.457
 21
41.8786
 31
0.0
  0
LINE
  8
0
 62
     0
 10
151.457
 20
41.8786
 30
0.0
 11
151.457
 21
55.8793
 31
0.0
  0
LINE
  8
0
 62
     0
 10
170.507
 20
55.8793
 30
0.0
 11
184.507
 21
55.8793
 31
0.0
  0
LINE
  8
0
 62
     0
 10
184.507
 20
55.8793
 30
0.0
 11
184.507
 21
41.8786
 31
0.0
  0
LINE
  8
0
 62
     0
 10
184.507
 20
41.8786
 30
0.0
 11
170.507
 21
41.8786
 31
0.0
  0
LINE
  8
0
 62
     0
 10
170.507
 20
41.8786
 30
0.0
 11
170.507
 21
55.8793
 31
0.0
  0
LINE
  8
0
 62
     0
 10
189.557
 20
55.8793
 30
0.0
 11
203.557
 21
55.8793
 31
0.0
  0
LINE
  8
0
 62
     0
 10
203.557
 20
55.8793
 30
0.0
 11
203.557
 21
41.8786
 31
0.0
  0
LINE
  8
0
 62
     0
 10
203.557
 20
41.8786
 30
0.0
 11
189.557
 21
41.8786
 31
0.0
  0
LINE
  8
0
 62
     0
 10
189.557
 20
41.8786
 30
0.0
 11
189.557
 21
55.8793
 31
0.0
  0
LINE
  8
0
 62
     0
 10
208.607
 20
55.8793
 30
0.0
 11
222.607
 21
55.8793
 31
0.0
  0
LINE
  8
0
 62
     0
 10
222.607
 20
55.8793
 30
0.0
 11
222.607
 21
41.8786
 31
0.0
  0
LINE
  8
0
 62
     0
 10
222.607
 20
41.8786
 30
0.0
 11
208.607
 21
41.8786
 31
0.0
  0
LINE
  8
0
 62
     0
 10
208.607
 20
41.8786
 30
0.0
 11
208.607
 21
55.8793
 31
0.0
  0
LINE
  8
0
 62
     0
 10
227.657
 20
55.8793
 30
0.0
 11
241.657
 21
55.8793
 31
0.0
  0
LINE
  8
0
 62
     0
 10
241.657
 20
55.8793
 30
0.0
 11
241.657
 21
41.8786
 31
0.0
  0
LINE
  8
0
 62
     0
 10
241.657
 20
41.8786
 30
0.0
 11
227.657
 21
41.8786
 31
0.0
  0
LINE
  8
0
 62
     0
 10
227.657
 20
41.8786
 30
0.0
 11
227.657
 21
55.8793
 31
0.0
  0
LINE
  8
0
 62
     0
 10
289.57
 20
55.8793
 30
0.0
 11
303.571
 21
55.8793
 31
0.0
  0
LINE
  8
0
 62
     0
 10
303.571
 20
55.8793
 30
0.0
 11
303.571
 21
41.8786
 31
0.0
  0
LINE
  8
0
 62
     0
 10
303.571
 20
41.8786
 30
0.0
 11
289.57
 21
41.8786
 31
0.0
  0
LINE
  8
0
 62
     0
 10
289.57
 20
41.8786
 30
0.0
 11
289.57
 21
55.8793
 31
0.0
  0
LINE
  8
0
 62
     0
 10
8.58241
 20
74.9293
 30
0.0
 11
22.5819
 21
74.9293
 31
0.0
  0
LINE
  8
0
 62
     0
 10
22.5819
 20
74.9293
 30
0.0
 11
22.5819
 21
60.9286
 31
0.0
  0
LINE
  8
0
 62
     0
 10
22.5819
 20
60.9286
 30
0.0
 11
8.58241
 21
60.9286
 31
0.0
  0
LINE
  8
0
 62
     0
 10
8.58241
 20
60.9286
 30
0.0
 11
8.58241
 21
74.9293
 31
0.0
  0
LINE
  8
0
 62
     0
 10
32.3949
 20
74.9293
 30
0.0
 11
46.3959
 21
74.9293
 31
0.0
  0
LINE
  8
0
 62
     0
 10
46.3959
 20
74.9293
 30
0.0
 11
46.3959
 21
60.9286
 31
0.0
  0
LINE
  8
0
 62
     0
 10
46.3959
 20
60.9286
 30
0.0
 11
32.3949
 21
60.9286
 31
0.0
  0
LINE
  8
0
 62
     0
 10
32.3949
 20
60.9286
 30
0.0
 11
32.3949
 21
74.9293
 31
0.0
  0
LINE
  8
0
 62
     0
 10
51.4449
 20
74.9293
 30
0.0
 11
65.4459
 21
74.9293
 31
0.0
  0
LINE
  8
0
 62
     0
 10
65.4459
 20
74.9293
 30
0.0
 11
65.4459
 21
60.9286
 31
0.0
  0
LINE
  8
0
 62
     0
 10
65.4459
 20
60.9286
 30
0.0
 11
51.4449
 21
60.9286
 31
0.0
  0
LINE
  8
0
 62
     0
 10
51.4449
 20
60.9286
 30
0.0
 11
51.4449
 21
74.9293
 31
0.0
  0
LINE
  8
0
 62
     0
 10
70.4949
 20
74.9293
 30
0.0
 11
84.4945
 21
74.9293
 31
0.0
  0
LINE
  8
0
 62
     0
 10
84.4945
 20
74.9293
 30
0.0
 11
84.4945
 21
60.9286
 31
0.0
  0
LINE
  8
0
 62
     0
 10
84.4945
 20
60.9286
 30
0.0
 11
70.4949
 21
60.9286
 31
0.0
  0
LINE
  8
0
 62
     0
 10
70.4949
 20
60.9286
 30
0.0
 11
70.4949
 21
74.9293
 31
0.0
  0
LINE
  8
0
 62
     0
 10
89.5449
 20
74.9293
 30
0.0
 11
103.545
 21
74.9293
 31
0.0
  0
LINE
  8
0
 62
     0
 10
103.545
 20
74.9293
 30
0.0
 11
103.545
 21
60.9286
 31
0.0
  0
LINE
  8
0
 62
     0
 10
103.545
 20
60.9286
 30
0.0
 11
89.5449
 21
60.9286
 31
0.0
  0
LINE
  8
0
 62
     0
 10
89.5449
 20
60.9286
 30
0.0
 11
89.5449
 21
74.9293
 31
0.0
  0
LINE
  8
0
 62
     0
 10
108.595
 20
74.9293
 30
0.0
 11
122.595
 21
74.9293
 31
0.0
  0
LINE
  8
0
 62
     0
 10
122.595
 20
74.9293
 30
0.0
 11
122.595
 21
60.9286
 31
0.0
  0
LINE
  8
0
 62
     0
 10
122.595
 20
60.9286
 30
0.0
 11
108.595
 21
60.9286
 31
0.0
  0
LINE
  8
0
 62
     0
 10
108.595
 20
60.9286
 30
0.0
 11
108.595
 21
74.9293
 31
0.0
  0
LINE
  8
0
 62
     0
 10
127.645
 20
74.9293
 30
0.0
 11
141.645
 21
74.9293
 31
0.0
  0
LINE
  8
0
 62
     0
 10
141.645
 20
74.9293
 30
0.0
 11
141.645
 21
60.9286
 31
0.0
  0
LINE
  8
0
 62
     0
 10
141.645
 20
60.9286
 30
0.0
 11
127.645
 21
60.9286
 31
0.0
  0
LINE
  8
0
 62
     0
 10
127.645
 20
60.9286
 30
0.0
 11
127.645
 21
74.9293
 31
0.0
  0
LINE
  8
0
 62
     0
 10
146.695
 20
74.9293
 30
0.0
 11
160.696
 21
74.9293
 31
0.0
  0
LINE
  8
0
 62
     0
 10
160.696
 20
74.9293
 30
0.0
 11
160.696
 21
60.9286
 31
0.0
  0
LINE
  8
0
 62
     0
 10
160.696
 20
60.9286
 30
0.0
 11
146.695
 21
60.9286
 31
0.0
  0
LINE
  8
0
 62
     0
 10
146.695
 20
60.9286
 30
0.0
 11
146.695
 21
74.9293
 31
0.0
  0
LINE
  8
0
 62
     0
 10
165.745
 20
74.9293
 30
0.0
 11
179.746
 21
74.9293
 31
0.0
  0
LINE
  8
0
 62
     0
 10
179.746
 20
74.9293
 30
0.0
 11
179.746
 21
60.9286
 31
0.0
  0
LINE
  8
0
 62
     0
 10
179.746
 20
60.9286
 30
0.0
 11
165.745
 21
60.9286
 31
0.0
  0
LINE
  8
0
 62
     0
 10
165.745
 20
60.9286
 30
0.0
 11
165.745
 21
74.9293
 31
0.0
  0
LINE
  8
0
 62
     0
 10
184.795
 20
74.9293
 30
0.0
 11
198.796
 21
74.9293
 31
0.0
  0
LINE
  8
0
 62
     0
 10
198.796
 20
74.9293
 30
0.0
 11
198.796
 21
60.9286
 31
0.0
  0
LINE
  8
0
 62
     0
 10
198.796
 20
60.9286
 30
0.0
 11
184.795
 21
60.9286
 31
0.0
  0
LINE
  8
0
 62
     0
 10
184.795
 20
60.9286
 30
0.0
 11
184.795
 21
74.9293
 31
0.0
  0
LINE
  8
0
 62
     0
 10
203.845
 20
74.9293
 30
0.0
 11
217.846
 21
74.9293
 31
0.0
  0
LINE
  8
0
 62
     0
 10
217.846
 20
74.9293
 30
0.0
 11
217.846
 21
60.9286
 31
0.0
  0
LINE
  8
0
 62
     0
 10
217.846
 20
60.9286
 30
0.0
 11
203.845
 21
60.9286
 31
0.0
  0
LINE
  8
0
 62
     0
 10
203.845
 20
60.9286
 30
0.0
 11
203.845
 21
74.9293
 31
0.0
  0
LINE
  8
0
 62
     0
 10
222.895
 20
74.9293
 30
0.0
 11
236.896
 21
74.9293
 31
0.0
  0
LINE
  8
0
 62
     0
 10
236.896
 20
74.9293
 30
0.0
 11
236.896
 21
60.9286
 31
0.0
  0
LINE
  8
0
 62
     0
 10
236.896
 20
60.9286
 30
0.0
 11
222.895
 21
60.9286
 31
0.0
  0
LINE
  8
0
 62
     0
 10
222.895
 20
60.9286
 30
0.0
 11
222.895
 21
74.9293
 31
0.0
  0
LINE
  8
0
 62
     0
 10
241.945
 20
74.9293
 30
0.0
 11
255.946
 21
74.9293
 31
0.0
  0
LINE
  8
0
 62
     0
 10
255.946
 20
74.9293
 30
0.0
 11
255.946
 21
60.9286
 31
0.0
  0
LINE
  8
0
 62
     0
 10
255.946
 20
60.9286
 30
0.0
 11
241.945
 21
60.9286
 31
0.0
  0
LINE
  8
0
 62
     0
 10
241.945
 20
60.9286
 30
0.0
 11
241.945
 21
74.9293
 31
0.0
  0
LINE
  8
0
 62
     0
 10
265.757
 20
74.9293
 30
0.0
 11
279.757
 21
74.9293
 31
0.0
  0
LINE
  8
0
 62
     0
 10
279.757
 20
74.9293
 30
0.0
 11
279.757
 21
60.9286
 31
0.0
  0
LINE
  8
0
 62
     0
 10
279.757
 20
60.9286
 30
0.0
 11
265.757
 21
60.9286
 31
0.0
  0
LINE
  8
0
 62
     0
 10
265.757
 20
60.9286
 30
0.0
 11
265.757
 21
74.9293
 31
0.0
  0
LINE
  8
0
 62
     0
 10
289.57
 20
74.9293
 30
0.0
 11
303.571
 21
74.9293
 31
0.0
  0
LINE
  8
0
 62
     0
 10
303.571
 20
74.9293
 30
0.0
 11
303.571
 21
60.9286
 31
0.0
  0
LINE
  8
0
 62
     0
 10
303.571
 20
60.9286
 30
0.0
 11
289.57
 21
60.9286
 31
0.0
  0
LINE
  8
0
 62
     0
 10
289.57
 20
60.9286
 30
0.0
 11
289.57
 21
74.9293
 31
0.0
  0
LINE
  8
0
 62
     0
 10
260.995
 20
93.9793
 30
0.0
 11
260.995
 21
89.2803
 31
0.0
  0
LINE
  8
0
 62
     0
 10
260.995
 20
89.2803
 30
0.0
 11
259.471
 21
89.2803
 31
0.0
  0
LINE
  8
0
 62
     0
 10
259.471
 20
89.2803
 30
0.0
 11
259.471
 21
92.5103
 31
0.0
  0
LINE
  8
0
 62
     0
 10
259.471
 20
92.5103
 30
0.0
 11
252.72
 21
92.5103
 31
0.0
  0
LINE
  8
0
 62
     0
 10
252.72
 20
92.5103
 30
0.0
 11
252.72
 21
89.2803
 31
0.0
  0
LINE
  8
0
 62
     0
 10
252.72
 20
89.2803
 30
0.0
 11
251.896
 21
89.2803
 31
0.0
  0
LINE
  8
0
 62
     0
 10
251.896
 20
89.2803
 30
0.0
 11
251.896
 21
86.4789
 31
0.0
  0
LINE
  8
0
 62
     0
 10
251.896
 20
86.4789
 30
0.0
 11
252.72
 21
86.4789
 31
0.0
  0
LINE
  8
0
 62
     0
 10
252.72
 20
86.4789
 30
0.0
 11
252.72
 21
80.2086
 31
0.0
  0
LINE
  8
0
 62
     0
 10
252.72
 20
80.2086
 30
0.0
 11
254.445
 21
80.2086
 31
0.0
  0
LINE
  8
0
 62
     0
 10
254.445
 20
80.2086
 30
0.0
 11
254.445
 21
79.0085
 31
0.0
  0
LINE
  8
0
 62
     0
 10
254.445
 20
79.0085
 30
0.0
 11
257.745
 21
79.0085
 31
0.0
  0
LINE
  8
0
 62
     0
 10
257.745
 20
79.0085
 30
0.0
 11
257.745
 21
80.2086
 31
0.0
  0
LINE
  8
0
 62
     0
 10
257.745
 20
80.2086
 30
0.0
 11
259.471
 21
80.2086
 31
0.0
  0
LINE
  8
0
 62
     0
 10
259.471
 20
80.2086
 30
0.0
 11
259.471
 21
84.679
 31
0.0
  0
LINE
  8
0
 62
     0
 10
259.471
 20
84.679
 30
0.0
 11
260.995
 21
84.679
 31
0.0
  0
LINE
  8
0
 62
     0
 10
260.995
 20
84.679
 30
0.0
 11
260.995
 21
79.9786
 31
0.0
  0
LINE
  8
0
 62
     0
 10
260.995
 20
79.9786
 30
0.0
 11
274.996
 21
79.9786
 31
0.0
  0
LINE
  8
0
 62
     0
 10
274.996
 20
79.9786
 30
0.0
 11
274.996
 21
84.679
 31
0.0
  0
LINE
  8
0
 62
     0
 10
274.996
 20
84.679
 30
0.0
 11
276.52
 21
84.679
 31
0.0
  0
LINE
  8
0
 62
     0
 10
276.52
 20
84.679
 30
0.0
 11
276.52
 21
80.2086
 31
0.0
  0
LINE
  8
0
 62
     0
 10
276.52
 20
80.2086
 30
0.0
 11
278.245
 21
80.2086
 31
0.0
  0
LINE
  8
0
 62
     0
 10
278.245
 20
80.2086
 30
0.0
 11
278.245
 21
79.0085
 31
0.0
  0
LINE
  8
0
 62
     0
 10
278.245
 20
79.0085
 30
0.0
 11
281.546
 21
79.0085
 31
0.0
  0
LINE
  8
0
 62
     0
 10
281.546
 20
79.0085
 30
0.0
 11
281.546
 21
80.2086
 31
0.0
  0
LINE
  8
0
 62
     0
 10
281.546
 20
80.2086
 30
0.0
 11
283.271
 21
80.2086
 31
0.0
  0
LINE
  8
0
 62
     0
 10
283.271
 20
80.2086
 30
0.0
 11
283.271
 21
86.4789
 31
0.0
  0
LINE
  8
0
 62
     0
 10
283.271
 20
86.4789
 30
0.0
 11
284.095
 21
86.4789
 31
0.0
  0
LINE
  8
0
 62
     0
 10
284.095
 20
86.4789
 30
0.0
 11
284.095
 21
89.2803
 31
0.0
  0
LINE
  8
0
 62
     0
 10
284.095
 20
89.2803
 30
0.0
 11
283.271
 21
89.2803
 31
0.0
  0
LINE
  8
0
 62
     0
 10
283.271
 20
89.2803
 30
0.0
 11
283.271
 21
92.5103
 31
0.0
  0
LINE
  8
0
 62
     0
 10
283.271
 20
92.5103
 30
0.0
 11
276.52
 21
92.5103
 31
0.0
  0
LINE
  8
0
 62
     0
 10
276.52
 20
92.5103
 30
0.0
 11
276.52
 21
89.2803
 31
0.0
  0
LINE
  8
0
 62
     0
 10
276.52
 20
89.2803
 30
0.0
 11
274.996
 21
89.2803
 31
0.0
  0
LINE
  8
0
 62
     0
 10
274.996
 20
89.2803
 30
0.0
 11
274.996
 21
93.9793
 31
0.0
  0
LINE
  8
0
 62
     0
 10
274.996
 20
93.9793
 30
0.0
 11
260.995
 21
93.9793
 31
0.0
  0
LINE
  8
0
 62
     0
 10
3.81991
 20
93.9793
 30
0.0
 11
17.8208
 21
93.9793
 31
0.0
  0
LINE
  8
0
 62
     0
 10
17.8208
 20
93.9793
 30
0.0
 11
17.8208
 21
79.9786
 31
0.0
  0
LINE
  8
0
 62
     0
 10
17.8208
 20
79.9786
 30
0.0
 11
3.81991
 21
79.9786
 31
0.0
  0
LINE
  8
0
 62
     0
 10
3.81991
 20
79.9786
 30
0.0
 11
3.81991
 21
93.9793
 31
0.0
  0
LINE
  8
0
 62
     0
 10
22.8699
 20
93.9793
 30
0.0
 11
36.8709
 21
93.9793
 31
0.0
  0
LINE
  8
0
 62
     0
 10
36.8709
 20
93.9793
 30
0.0
 11
36.8709
 21
79.9786
 31
0.0
  0
LINE
  8
0
 62
     0
 10
36.8709
 20
79.9786
 30
0.0
 11
22.8699
 21
79.9786
 31
0.0
  0
LINE
  8
0
 62
     0
 10
22.8699
 20
79.9786
 30
0.0
 11
22.8699
 21
93.9793
 31
0.0
  0
LINE
  8
0
 62
     0
 10
41.9199
 20
93.9793
 30
0.0
 11
55.9209
 21
93.9793
 31
0.0
  0
LINE
  8
0
 62
     0
 10
55.9209
 20
93.9793
 30
0.0
 11
55.9209
 21
79.9786
 31
0.0
  0
LINE
  8
0
 62
     0
 10
55.9209
 20
79.9786
 30
0.0
 11
41.9199
 21
79.9786
 31
0.0
  0
LINE
  8
0
 62
     0
 10
41.9199
 20
79.9786
 30
0.0
 11
41.9199
 21
93.9793
 31
0.0
  0
LINE
  8
0
 62
     0
 10
60.9699
 20
93.9793
 30
0.0
 11
74.9709
 21
93.9793
 31
0.0
  0
LINE
  8
0
 62
     0
 10
74.9709
 20
93.9793
 30
0.0
 11
74.9709
 21
79.9786
 31
0.0
  0
LINE
  8
0
 62
     0
 10
74.9709
 20
79.9786
 30
0.0
 11
60.9699
 21
79.9786
 31
0.0
  0
LINE
  8
0
 62
     0
 10
60.9699
 20
79.9786
 30
0.0
 11
60.9699
 21
93.9793
 31
0.0
  0
LINE
  8
0
 62
     0
 10
80.0199
 20
93.9793
 30
0.0
 11
94.0209
 21
93.9793
 31
0.0
  0
LINE
  8
0
 62
     0
 10
94.0209
 20
93.9793
 30
0.0
 11
94.0209
 21
79.9786
 31
0.0
  0
LINE
  8
0
 62
     0
 10
94.0209
 20
79.9786
 30
0.0
 11
80.0199
 21
79.9786
 31
0.0
  0
LINE
  8
0
 62
     0
 10
80.0199
 20
79.9786
 30
0.0
 11
80.0199
 21
93.9793
 31
0.0
  0
LINE
  8
0
 62
     0
 10
99.0699
 20
93.9793
 30
0.0
 11
113.071
 21
93.9793
 31
0.0
  0
LINE
  8
0
 62
     0
 10
113.071
 20
93.9793
 30
0.0
 11
113.071
 21
79.9786
 31
0.0
  0
LINE
  8
0
 62
     0
 10
113.071
 20
79.9786
 30
0.0
 11
99.0699
 21
79.9786
 31
0.0
  0
LINE
  8
0
 62
     0
 10
99.0699
 20
79.9786
 30
0.0
 11
99.0699
 21
93.9793
 31
0.0
  0
LINE
  8
0
 62
     0
 10
118.12
 20
93.9793
 30
0.0
 11
132.121
 21
93.9793
 31
0.0
  0
LINE
  8
0
 62
     0
 10
132.121
 20
93.9793
 30
0.0
 11
132.121
 21
79.9786
 31
0.0
  0
LINE
  8
0
 62
     0
 10
132.121
 20
79.9786
 30
0.0
 11
118.12
 21
79.9786
 31
0.0
  0
LINE
  8
0
 62
     0
 10
118.12
 20
79.9786
 30
0.0
 11
118.12
 21
93.9793
 31
0.0
  0
LINE
  8
0
 62
     0
 10
137.17
 20
93.9793
 30
0.0
 11
151.171
 21
93.9793
 31
0.0
  0
LINE
  8
0
 62
     0
 10
151.171
 20
93.9793
 30
0.0
 11
151.171
 21
79.9786
 31
0.0
  0
LINE
  8
0
 62
     0
 10
151.171
 20
79.9786
 30
0.0
 11
137.17
 21
79.9786
 31
0.0
  0
LINE
  8
0
 62
     0
 10
137.17
 20
79.9786
 30
0.0
 11
137.17
 21
93.9793
 31
0.0
  0
LINE
  8
0
 62
     0
 10
156.22
 20
93.9793
 30
0.0
 11
170.221
 21
93.9793
 31
0.0
  0
LINE
  8
0
 62
     0
 10
170.221
 20
93.9793
 30
0.0
 11
170.221
 21
79.9786
 31
0.0
  0
LINE
  8
0
 62
     0
 10
170.221
 20
79.9786
 30
0.0
 11
156.22
 21
79.9786
 31
0.0
  0
LINE
  8
0
 62
     0
 10
156.22
 20
79.9786
 30
0.0
 11
156.22
 21
93.9793
 31
0.0
  0
LINE
  8
0
 62
     0
 10
175.27
 20
93.9793
 30
0.0
 11
189.271
 21
93.9793
 31
0.0
  0
LINE
  8
0
 62
     0
 10
189.271
 20
93.9793
 30
0.0
 11
189.271
 21
79.9786
 31
0.0
  0
LINE
  8
0
 62
     0
 10
189.271
 20
79.9786
 30
0.0
 11
175.27
 21
79.9786
 31
0.0
  0
LINE
  8
0
 62
     0
 10
175.27
 20
79.9786
 30
0.0
 11
175.27
 21
93.9793
 31
0.0
  0
LINE
  8
0
 62
     0
 10
194.32
 20
93.9793
 30
0.0
 11
208.321
 21
93.9793
 31
0.0
  0
LINE
  8
0
 62
     0
 10
208.321
 20
93.9793
 30
0.0
 11
208.321
 21
79.9786
 31
0.0
  0
LINE
  8
0
 62
     0
 10
208.321
 20
79.9786
 30
0.0
 11
194.32
 21
79.9786
 31
0.0
  0
LINE
  8
0
 62
     0
 10
194.32
 20
79.9786
 30
0.0
 11
194.32
 21
93.9793
 31
0.0
  0
LINE
  8
0
 62
     0
 10
213.37
 20
93.9793
 30
0.0
 11
227.371
 21
93.9793
 31
0.0
  0
LINE
  8
0
 62
     0
 10
227.371
 20
93.9793
 30
0.0
 11
227.371
 21
79.9786
 31
0.0
  0
LINE
  8
0
 62
     0
 10
227.371
 20
79.9786
 30
0.0
 11
213.37
 21
79.9786
 31
0.0
  0
LINE
  8
0
 62
     0
 10
213.37
 20
79.9786
 30
0.0
 11
213.37
 21
93.9793
 31
0.0
  0
LINE
  8
0
 62
     0
 10
232.42
 20
93.9793
 30
0.0
 11
246.421
 21
93.9793
 31
0.0
  0
LINE
  8
0
 62
     0
 10
246.421
 20
93.9793
 30
0.0
 11
246.421
 21
79.9786
 31
0.0
  0
LINE
  8
0
 62
     0
 10
246.421
 20
79.9786
 30
0.0
 11
232.42
 21
79.9786
 31
0.0
  0
LINE
  8
0
 62
     0
 10
232.42
 20
79.9786
 30
0.0
 11
232.42
 21
93.9793
 31
0.0
  0
LINE
  8
0
 62
     0
 10
289.57
 20
93.9793
 30
0.0
 11
303.571
 21
93.9793
 31
0.0
  0
LINE
  8
0
 62
     0
 10
303.571
 20
93.9793
 30
0.0
 11
303.571
 21
79.9786
 31
0.0
  0
LINE
  8
0
 62
     0
 10
303.571
 20
79.9786
 30
0.0
 11
289.57
 21
79.9786
 31
0.0
  0
LINE
  8
0
 62
     0
 10
289.57
 20
79.9786
 30
0.0
 11
289.57
 21
93.9793
 31
0.0
  0
ENDSEC
  0
EOF
